<svg xmlns="http://www.w3.org/2000/svg" viewBox="0 0 1600 860" preserveAspectRatio="xMidYMid slice">
  <defs>
    <linearGradient id="sky" x1="0" y1="0" x2="0" y2="1">
      <stop offset="0" stop-color="#DDEBCF"/>
      <stop offset="0.48" stop-color="#F3F1D2"/>
      <stop offset="1" stop-color="#BFD4A4"/>
    </linearGradient>
    <linearGradient id="ground" x1="0" y1="0" x2="1" y2="1">
      <stop offset="0" stop-color="#314A2E"/>
      <stop offset="1" stop-color="#172818"/>
    </linearGradient>
    <filter id="soft"><feGaussianBlur stdDeviation="14"/></filter>
  </defs>
  <rect width="1600" height="860" fill="url(#sky)"/>
  <circle cx="1260" cy="170" r="96" fill="#F2D78B" opacity=".8"/>
  <circle cx="190" cy="160" r="230" fill="#FFFFFF" opacity=".22" filter="url(#soft)"/>
  <circle cx="1220" cy="470" r="260" fill="#FFFFFF" opacity=".12" filter="url(#soft)"/>
  <path d="M0 610 C220 515 360 610 560 520 C760 430 930 580 1120 500 C1320 415 1430 475 1600 425 V860 H0Z" fill="#607C4C" opacity=".72"/>
  <path d="M0 690 C280 580 420 710 690 610 C920 525 1110 650 1320 560 C1450 505 1530 520 1600 500 V860 H0Z" fill="url(#ground)"/>
  <g fill="none" stroke="#F8FFF0" stroke-width="9" stroke-linecap="round" stroke-linejoin="round" opacity=".95">
    <path d="M705 440h88l-13 138h-62l-13-138Z"/>
    <path d="M692 440h115"/>
    <path d="M726 410h43"/>
    <path d="M830 440h88l-13 138h-62l-13-138Z"/>
    <path d="M817 440h115"/>
    <path d="M851 410h43"/>
    <path d="M758 360c31-28 77-30 110-6"/>
    <path d="M869 354l-6 45 43-16"/>
    <path d="M866 610c-38 21-90 12-120-22"/>
    <path d="M747 588l11-44-45 7"/>
  </g>
  <path d="M1030 515c45-50 98-26 100-25 1 1-7 61-59 81-40 15-66-9-66-9s-1-21 25-47Z" fill="#B6D65F"/>
  <path d="M1015 574c33-33 69-55 115-84" stroke="#F8FFF0" stroke-width="7" stroke-linecap="round"/>
  <g fill="#162516" opacity=".88">
    <path d="M120 580c35-90 95-90 130 0Z"/>
    <path d="M178 500h14v116h-14z"/>
    <path d="M1250 560c45-118 124-118 170 0Z"/>
    <path d="M1330 445h18v160h-18z"/>
    <path d="M1430 600c28-75 80-75 110 0Z"/>
    <path d="M1480 535h12v95h-12z"/>
  </g>
</svg>
